<?xml version="1.0" standalone="no"?>
<!DOCTYPE svg PUBLIC "-//W3C//DTD SVG 20010904//EN"
 "http://www.w3.org/TR/2001/REC-SVG-20010904/DTD/svg10.dtd">
<svg version="1.0" xmlns="http://www.w3.org/2000/svg"
 width="900.000000pt" height="900.000000pt" viewBox="0 0 900.000000 900.000000"
 preserveAspectRatio="xMidYMid meet">

<g transform="translate(0.000000,900.000000) scale(0.100000,-0.100000)"
fill="#000000" stroke="none">
<path d="M1351 7273 c17 -32 44 -78 59 -103 15 -25 46 -76 67 -115 22 -38 75
-131 118 -205 43 -74 101 -175 130 -225 28 -49 87 -151 130 -225 43 -74 111
-191 150 -260 39 -69 107 -186 150 -260 43 -74 101 -175 130 -225 29 -49 87
-151 130 -225 43 -74 104 -180 135 -235 31 -55 91 -158 132 -230 42 -71 135
-233 208 -360 73 -126 158 -273 188 -325 30 -52 88 -151 127 -220 101 -175
169 -293 260 -450 43 -74 110 -191 150 -260 39 -69 104 -181 143 -249 40 -69
72 -130 72 -136 0 -6 -13 -31 -28 -56 -54 -85 -132 -226 -132 -239 0 -6 16
-39 37 -73 20 -34 62 -107 93 -162 32 -55 93 -161 136 -237 44 -75 129 -222
189 -327 61 -105 112 -191 115 -191 3 0 14 17 26 38 34 60 136 237 216 377 42
72 111 191 153 265 43 74 103 178 133 230 30 52 87 151 127 220 40 69 107 186
150 260 43 74 102 176 130 225 29 50 87 151 130 225 43 74 102 176 130 225 29
50 87 151 130 225 43 74 103 180 135 235 31 55 90 156 130 225 40 69 133 231
208 360 74 129 169 294 210 365 41 72 100 173 130 225 175 304 285 494 343
593 l33 57 171 0 171 0 50 88 c50 85 147 254 341 590 53 92 116 201 140 242
l43 75 -2513 3 -2512 2 -70 120 c-39 66 -78 134 -87 150 l-18 30 -576 0 -575
0 32 -57z m2023 -835 c93 -165 189 -332 213 -371 l22 -37 1286 -2 1285 -3 -50
-85 c-27 -47 -69 -120 -92 -162 l-43 -78 -291 0 -292 0 -40 -67 c-22 -38 -83
-144 -137 -238 -54 -93 -132 -228 -173 -300 -68 -118 -108 -187 -277 -480 -28
-49 -87 -151 -130 -225 -43 -74 -110 -191 -150 -260 -40 -69 -98 -170 -130
-225 -100 -173 -207 -359 -229 -397 -12 -21 -23 -38 -26 -38 -3 0 -23 33 -46
73 -22 39 -65 113 -94 162 l-52 90 29 55 c31 58 154 272 216 377 37 62 45 91
28 109 -6 5 -34 52 -64 104 -29 52 -89 156 -132 230 -43 74 -101 176 -130 225
-28 50 -87 151 -130 225 -43 74 -110 191 -150 260 -39 69 -131 229 -205 355
-73 127 -159 275 -190 330 -65 115 -193 336 -238 412 -17 28 -28 54 -25 57 4
3 90 6 192 6 l186 0 59 -102z"/>
</g>
</svg>
